<?xml version="1.0" encoding="iso-8859-1"?>
<!-- Uploaded to: SVG Repo, www.svgrepo.com, Generator: SVG Repo Mixer Tools -->
<!DOCTYPE svg PUBLIC "-//W3C//DTD SVG 1.1//EN" "http://www.w3.org/Graphics/SVG/1.1/DTD/svg11.dtd">
<svg fill="#000000" height="800px" width="800px" version="1.1" id="Capa_1" xmlns="http://www.w3.org/2000/svg" xmlns:xlink="http://www.w3.org/1999/xlink" 
	 viewBox="0 0 226.284 226.284" xml:space="preserve">
<path d="M190.478,150.879c-10.756,10.755-21.66,16.209-32.409,16.209c-0.001,0-0.001,0-0.002,0
	c-11.045-0.001-18.318-5.709-21.251-8.544c-9.777,6.822-15.489,14.909-16.101,22.978v37.262c0,4.143-3.357,7.5-7.5,7.5
	s-7.5-3.357-7.5-7.5v-24.152c-0.043-0.326-0.073-0.656-0.073-0.993v-10.674c0-8.542-5.814-17.191-16.174-24.421
	c-2.933,2.836-10.205,8.544-21.249,8.544c-0.001,0-0.001,0-0.002,0c-10.751-0.001-21.655-5.454-32.41-16.209
	c-29.268-29.267-24.991-64.76-24.795-66.256c0.442-3.368,3.093-6.019,6.46-6.461c0.249-0.032,2.537-0.318,6.253-0.318
	c10.489,0,37.336,2.447,60.003,25.113c11.229,11.229,16.672,22.592,16.18,33.773c-0.158,3.574-0.911,6.72-1.935,9.431
	c2.832,1.96,5.419,4.017,7.743,6.163V86.658h-4.578c-13.671,0-24.793-11.122-24.793-24.793V41.483
	c-3.468-0.66-6.09-3.703-6.09-7.363c0-4.143,3.357-7.5,7.5-7.5h6.09h4.389V7.5c0-4.143,3.357-7.5,7.5-7.5s7.5,3.357,7.5,7.5v19.12
	h19.818V7.5c0-4.143,3.357-7.5,7.5-7.5c4.143,0,7.5,3.357,7.5,7.5v19.12h4.389h6.09c4.143,0,7.5,3.357,7.5,7.5
	c0,3.66-2.622,6.703-6.09,7.363v20.382c0,13.671-11.122,24.793-24.793,24.793h-4.432v65.535c2.286-2.098,4.823-4.112,7.596-6.031
	c-1.024-2.71-1.777-5.857-1.934-9.43c-0.493-11.183,4.95-22.546,16.18-33.774c22.666-22.666,49.513-25.113,60.003-25.113
	c3.714,0,6.003,0.286,6.252,0.318c3.368,0.442,6.019,3.093,6.461,6.461C215.469,86.12,219.743,121.612,190.478,150.879z"/>
</svg>