<?xml version="1.0" encoding="iso-8859-1"?>
<!-- Uploaded to: SVG Repo, www.svgrepo.com, Generator: SVG Repo Mixer Tools -->
<svg height="800px" width="800px" version="1.1" id="Layer_1" xmlns="http://www.w3.org/2000/svg" xmlns:xlink="http://www.w3.org/1999/xlink" 
	 viewBox="0 0 512 512" xml:space="preserve">
<path style="fill:#BDC4D0;" d="M129.408,339.2l-3.021-8.525c-0.862-2.432-2.065-4.702-3.584-6.724l-5.402-7.245l35.285-52.941
	l11.034,10.394c14.276,13.457,23.543,30.78,26.82,50.108l2.517,14.933L129.408,339.2L129.408,339.2z"/>
<circle style="fill:#A0BF7C;" cx="102.4" cy="339.2" r="25.6"/>
<path style="fill:#BDC4D0;" d="M409.6,428.8c-49.408,0-89.6-40.192-89.6-89.6c0-28.22,13.764-55.168,36.821-72.09l12.237-8.986
	l28.416,56.841l-6.263,6.511C386.56,326.298,384,332.604,384,339.2c0,14.114,11.486,25.6,25.6,25.6c14.114,0,25.6-11.486,25.6-25.6
	s-11.486-25.6-25.6-25.6c-0.589,0-1.169,0.119-1.732,0.188l-10.334,1.246l-28.399-56.781l14.473-4.429
	c9.318-2.85,17.818-4.233,25.993-4.233c49.408,0,89.6,40.192,89.6,89.6S459.008,428.8,409.6,428.8z"/>
<circle style="fill:#A0BF7C;" cx="409.6" cy="339.2" r="25.6"/>
<path style="fill:#BDC4D0;" d="M102.4,428.8c-49.408,0-89.6-40.192-89.6-89.6s40.192-89.6,89.6-89.6
	c12.493,0,24.772,2.671,36.506,7.927l13.807,6.195l-35.328,52.992l-8.755-2.219c-2.423-0.606-4.412-0.887-6.229-0.887
	c-14.114,0-25.6,11.486-25.6,25.6c0,14.114,11.486,25.6,25.6,25.6c10.718,0,20.361-6.869,23.996-17.092l3.021-8.508h63.642
	l-2.534,14.942C183.202,397.397,146.133,428.8,102.4,428.8z"/>
<path style="fill:#573A32;" d="M409.6,236.8c-11.913,0-23.168,2.432-33.801,6.17L302.31,96h43.29c7.074,0,12.8-5.726,12.8-12.8
	s-5.726-12.8-12.8-12.8H243.2c-7.074,0-12.8,5.726-12.8,12.8S236.126,96,243.2,96h30.49l48.486,96.973l-73.02,114.449L218.01,185.6
	h25.19c7.074,0,12.8-5.726,12.8-12.8c0-7.074-5.726-12.8-12.8-12.8H140.8c-7.074,0-12.8,5.726-12.8,12.8
	c0,7.074,5.726,12.8,12.8,12.8h48.623l-41.54,62.302c-13.756-6.869-29.056-11.102-45.483-11.102C45.85,236.8,0,282.641,0,339.2
	c0,56.55,45.85,102.4,102.4,102.4c52.173,0,94.746-39.159,101.111-89.6h30.618l9.813,38.4H230.4c-7.074,0-12.8,5.726-12.8,12.8
	s5.726,12.8,12.8,12.8h51.2c7.074,0,12.8-5.726,12.8-12.8s-5.726-12.8-12.8-12.8h-11.23l-12.518-48.973l77.679-121.754
	l17.203,34.406c-27.443,18.372-45.534,49.621-45.534,85.12c0,56.55,45.85,102.4,102.4,102.4S512,395.75,512,339.2
	C512,282.641,466.15,236.8,409.6,236.8z M102.4,416c-42.351,0-76.8-34.449-76.8-76.8s34.449-76.8,76.8-76.8
	c11.153,0,21.7,2.509,31.275,6.81l-21.914,32.87c-3.012-0.759-6.11-1.28-9.361-1.28c-21.205,0-38.4,17.195-38.4,38.4
	c0,21.205,17.195,38.4,38.4,38.4c16.691,0,30.763-10.718,36.053-25.6h39.458C171.767,388.241,140.365,416,102.4,416z M115.2,339.2
	c0,7.057-5.743,12.8-12.8,12.8c-7.057,0-12.8-5.743-12.8-12.8s5.743-12.8,12.8-12.8C109.457,326.4,115.2,332.143,115.2,339.2z
	 M138.453,326.4c-1.306-3.661-3.106-7.057-5.393-10.112l21.871-32.819c11.904,11.221,20.13,26.121,22.972,42.923h-39.45V326.4z
	 M203.511,326.4c-3.234-25.651-15.77-48.154-34.347-64.265l30.353-45.534L227.593,326.4H203.511z M409.6,416
	c-42.351,0-76.8-34.449-76.8-76.8c0-25.404,12.544-47.787,31.599-61.773l17.587,35.174c-6.647,6.903-10.786,16.256-10.786,26.598
	c0,21.205,17.195,38.4,38.4,38.4c21.205,0,38.4-17.195,38.4-38.4c0-21.205-17.195-38.4-38.4-38.4c-1.596,0-3.115,0.282-4.651,0.469
	l-17.596-35.191c7.091-2.167,14.464-3.678,22.246-3.678c42.351,0,76.8,34.449,76.8,76.8S451.951,416,409.6,416z M396.8,339.2
	c0-7.057,5.743-12.8,12.8-12.8c7.057,0,12.8,5.743,12.8,12.8s-5.743,12.8-12.8,12.8C402.543,352,396.8,346.257,396.8,339.2z"/>
</svg>